0
SECTION
2
HEADER
9
$INSUNITS
70
4
0
ENDSEC
0
SECTION
2
TABLES
0
TABLE
2
LTYPE
0
LTYPE
72
65
70
64
2
CONTINUOUS
3
______
73
0
40
0
0
ENDTAB
0
TABLE
2
LAYER
0
ENDTAB
0
ENDSEC
0
SECTION
2
ENTITIES
0
LINE
8
0
10
26.8375
20
-2.525
11
39.8375
21
-2.525
0
LINE
8
0
10
26.8375
20
-16.525
11
39.8375
21
-16.525
0
LINE
8
0
10
26.3375
20
-3.025
11
26.3375
21
-16.025
0
LINE
8
0
10
40.3375
20
-3.025
11
40.3375
21
-16.025
0
ARC
8
0
10
26.8375
20
-3.025
40
0.5
50
90
51
180
0
ARC
8
0
10
39.8375
20
-3.025
40
0.5
50
0
51
90
0
ARC
8
0
10
26.8375
20
-16.025
40
0.5
50
180
51
270
0
ARC
8
0
10
39.8375
20
-16.025
40
0.5
50
270
51
0
0
LINE
8
0
10
45.8875
20
-2.525
11
58.8875
21
-2.525
0
LINE
8
0
10
45.8875
20
-16.525
11
58.8875
21
-16.525
0
LINE
8
0
10
45.3875
20
-3.025
11
45.3875
21
-16.025
0
LINE
8
0
10
59.3875
20
-3.025
11
59.3875
21
-16.025
0
ARC
8
0
10
45.8875
20
-3.025
40
0.5
50
90
51
180
0
ARC
8
0
10
58.8875
20
-3.025
40
0.5
50
0
51
90
0
ARC
8
0
10
45.8875
20
-16.025
40
0.5
50
180
51
270
0
ARC
8
0
10
58.8875
20
-16.025
40
0.5
50
270
51
0
0
LINE
8
0
10
64.9375
20
-2.525
11
77.9375
21
-2.525
0
LINE
8
0
10
64.9375
20
-16.525
11
77.9375
21
-16.525
0
LINE
8
0
10
64.4375
20
-3.025
11
64.4375
21
-16.025
0
LINE
8
0
10
78.4375
20
-3.025
11
78.4375
21
-16.025
0
ARC
8
0
10
64.9375
20
-3.025
40
0.5
50
90
51
180
0
ARC
8
0
10
77.9375
20
-3.025
40
0.5
50
0
51
90
0
ARC
8
0
10
64.9375
20
-16.025
40
0.5
50
180
51
270
0
ARC
8
0
10
77.9375
20
-16.025
40
0.5
50
270
51
0
0
LINE
8
0
10
83.9875
20
-2.525
11
96.9875
21
-2.525
0
LINE
8
0
10
83.9875
20
-16.525
11
96.9875
21
-16.525
0
LINE
8
0
10
83.4875
20
-3.025
11
83.4875
21
-16.025
0
LINE
8
0
10
97.4875
20
-3.025
11
97.4875
21
-16.025
0
ARC
8
0
10
83.9875
20
-3.025
40
0.5
50
90
51
180
0
ARC
8
0
10
96.9875
20
-3.025
40
0.5
50
0
51
90
0
ARC
8
0
10
83.9875
20
-16.025
40
0.5
50
180
51
270
0
ARC
8
0
10
96.9875
20
-16.025
40
0.5
50
270
51
0
0
LINE
8
0
10
103.0375
20
-2.525
11
116.0375
21
-2.525
0
LINE
8
0
10
103.0375
20
-16.525
11
116.0375
21
-16.525
0
LINE
8
0
10
102.5375
20
-3.025
11
102.5375
21
-16.025
0
LINE
8
0
10
116.5375
20
-3.025
11
116.5375
21
-16.025
0
ARC
8
0
10
103.0375
20
-3.025
40
0.5
50
90
51
180
0
ARC
8
0
10
116.0375
20
-3.025
40
0.5
50
0
51
90
0
ARC
8
0
10
103.0375
20
-16.025
40
0.5
50
180
51
270
0
ARC
8
0
10
116.0375
20
-16.025
40
0.5
50
270
51
0
0
LINE
8
0
10
122.0875
20
-2.525
11
135.0875
21
-2.525
0
LINE
8
0
10
122.0875
20
-16.525
11
135.0875
21
-16.525
0
LINE
8
0
10
121.5875
20
-3.025
11
121.5875
21
-16.025
0
LINE
8
0
10
135.5875
20
-3.025
11
135.5875
21
-16.025
0
ARC
8
0
10
122.0875
20
-3.025
40
0.5
50
90
51
180
0
ARC
8
0
10
135.0875
20
-3.025
40
0.5
50
0
51
90
0
ARC
8
0
10
122.0875
20
-16.025
40
0.5
50
180
51
270
0
ARC
8
0
10
135.0875
20
-16.025
40
0.5
50
270
51
0
0
LINE
8
0
10
141.1375
20
-2.525
11
154.1375
21
-2.525
0
LINE
8
0
10
141.1375
20
-16.525
11
154.1375
21
-16.525
0
LINE
8
0
10
140.6375
20
-3.025
11
140.6375
21
-16.025
0
LINE
8
0
10
154.6375
20
-3.025
11
154.6375
21
-16.025
0
ARC
8
0
10
141.1375
20
-3.025
40
0.5
50
90
51
180
0
ARC
8
0
10
154.1375
20
-3.025
40
0.5
50
0
51
90
0
ARC
8
0
10
141.1375
20
-16.025
40
0.5
50
180
51
270
0
ARC
8
0
10
154.1375
20
-16.025
40
0.5
50
270
51
0
0
LINE
8
0
10
160.1875
20
-2.525
11
173.1875
21
-2.525
0
LINE
8
0
10
160.1875
20
-16.525
11
173.1875
21
-16.525
0
LINE
8
0
10
159.6875
20
-3.025
11
159.6875
21
-16.025
0
LINE
8
0
10
173.6875
20
-3.025
11
173.6875
21
-16.025
0
ARC
8
0
10
160.1875
20
-3.025
40
0.5
50
90
51
180
0
ARC
8
0
10
173.1875
20
-3.025
40
0.5
50
0
51
90
0
ARC
8
0
10
160.1875
20
-16.025
40
0.5
50
180
51
270
0
ARC
8
0
10
173.1875
20
-16.025
40
0.5
50
270
51
0
0
LINE
8
0
10
179.2375
20
-2.525
11
192.2375
21
-2.525
0
LINE
8
0
10
179.2375
20
-16.525
11
192.2375
21
-16.525
0
LINE
8
0
10
178.7375
20
-3.025
11
178.7375
21
-16.025
0
LINE
8
0
10
192.7375
20
-3.025
11
192.7375
21
-16.025
0
ARC
8
0
10
179.2375
20
-3.025
40
0.5
50
90
51
180
0
ARC
8
0
10
192.2375
20
-3.025
40
0.5
50
0
51
90
0
ARC
8
0
10
179.2375
20
-16.025
40
0.5
50
180
51
270
0
ARC
8
0
10
192.2375
20
-16.025
40
0.5
50
270
51
0
0
LINE
8
0
10
198.2875
20
-2.525
11
211.2875
21
-2.525
0
LINE
8
0
10
198.2875
20
-16.525
11
211.2875
21
-16.525
0
LINE
8
0
10
197.7875
20
-3.025
11
197.7875
21
-16.025
0
LINE
8
0
10
211.7875
20
-3.025
11
211.7875
21
-16.025
0
ARC
8
0
10
198.2875
20
-3.025
40
0.5
50
90
51
180
0
ARC
8
0
10
211.2875
20
-3.025
40
0.5
50
0
51
90
0
ARC
8
0
10
198.2875
20
-16.025
40
0.5
50
180
51
270
0
ARC
8
0
10
211.2875
20
-16.025
40
0.5
50
270
51
0
0
LINE
8
0
10
217.3375
20
-2.525
11
230.3375
21
-2.525
0
LINE
8
0
10
217.3375
20
-16.525
11
230.3375
21
-16.525
0
LINE
8
0
10
216.8375
20
-3.025
11
216.8375
21
-16.025
0
LINE
8
0
10
230.8375
20
-3.025
11
230.8375
21
-16.025
0
ARC
8
0
10
217.3375
20
-3.025
40
0.5
50
90
51
180
0
ARC
8
0
10
230.3375
20
-3.025
40
0.5
50
0
51
90
0
ARC
8
0
10
217.3375
20
-16.025
40
0.5
50
180
51
270
0
ARC
8
0
10
230.3375
20
-16.025
40
0.5
50
270
51
0
0
LINE
8
0
10
236.3875
20
-2.525
11
249.3875
21
-2.525
0
LINE
8
0
10
236.3875
20
-16.525
11
249.3875
21
-16.525
0
LINE
8
0
10
235.8875
20
-3.025
11
235.8875
21
-16.025
0
LINE
8
0
10
249.8875
20
-3.025
11
249.8875
21
-16.025
0
ARC
8
0
10
236.3875
20
-3.025
40
0.5
50
90
51
180
0
ARC
8
0
10
249.3875
20
-3.025
40
0.5
50
0
51
90
0
ARC
8
0
10
236.3875
20
-16.025
40
0.5
50
180
51
270
0
ARC
8
0
10
249.3875
20
-16.025
40
0.5
50
270
51
0
0
LINE
8
0
10
255.4375
20
-2.525
11
268.4375
21
-2.525
0
LINE
8
0
10
255.4375
20
-16.525
11
268.4375
21
-16.525
0
LINE
8
0
10
254.9375
20
-3.025
11
254.9375
21
-16.025
0
LINE
8
0
10
268.9375
20
-3.025
11
268.9375
21
-16.025
0
ARC
8
0
10
255.4375
20
-3.025
40
0.5
50
90
51
180
0
ARC
8
0
10
268.4375
20
-3.025
40
0.5
50
0
51
90
0
ARC
8
0
10
255.4375
20
-16.025
40
0.5
50
180
51
270
0
ARC
8
0
10
268.4375
20
-16.025
40
0.5
50
270
51
0
0
LINE
8
0
10
284.0125
20
-2.525
11
297.0125
21
-2.525
0
LINE
8
0
10
284.0125
20
-16.525
11
297.0125
21
-16.525
0
LINE
8
0
10
283.5125
20
-3.025
11
283.5125
21
-16.025
0
LINE
8
0
10
297.5125
20
-3.025
11
297.5125
21
-16.025
0
ARC
8
0
10
284.0125
20
-3.025
40
0.5
50
90
51
180
0
ARC
8
0
10
297.0125
20
-3.025
40
0.5
50
0
51
90
0
ARC
8
0
10
284.0125
20
-16.025
40
0.5
50
180
51
270
0
ARC
8
0
10
297.0125
20
-16.025
40
0.5
50
270
51
0
0
LINE
8
0
10
275.5745
20
-3.525
11
281.5745
21
-3.525
0
LINE
8
0
10
275.5745
20
-18.525
11
281.5745
21
-18.525
0
LINE
8
0
10
275.0745
20
-4.025
11
275.0745
21
-18.025
0
LINE
8
0
10
282.0745
20
-4.025
11
282.0745
21
-18.025
0
ARC
8
0
10
275.5745
20
-4.025
40
0.5
50
90
51
180
0
ARC
8
0
10
281.5745
20
-4.025
40
0.5
50
0
51
90
0
ARC
8
0
10
275.5745
20
-18.025
40
0.5
50
180
51
270
0
ARC
8
0
10
281.5745
20
-18.025
40
0.5
50
270
51
0
0
LINE
8
0
10
299.4505
20
-3.525
11
305.4505
21
-3.525
0
LINE
8
0
10
299.4505
20
-18.525
11
305.4505
21
-18.525
0
LINE
8
0
10
298.9505
20
-4.025
11
298.9505
21
-18.025
0
LINE
8
0
10
305.9505
20
-4.025
11
305.9505
21
-18.025
0
ARC
8
0
10
299.4505
20
-4.025
40
0.5
50
90
51
180
0
ARC
8
0
10
305.4505
20
-4.025
40
0.5
50
0
51
90
0
ARC
8
0
10
299.4505
20
-18.025
40
0.5
50
180
51
270
0
ARC
8
0
10
305.4505
20
-18.025
40
0.5
50
270
51
0
0
LINE
8
0
10
317.35
20
-2.525
11
330.35
21
-2.525
0
LINE
8
0
10
317.35
20
-16.525
11
330.35
21
-16.525
0
LINE
8
0
10
316.85
20
-3.025
11
316.85
21
-16.025
0
LINE
8
0
10
330.85
20
-3.025
11
330.85
21
-16.025
0
ARC
8
0
10
317.35
20
-3.025
40
0.5
50
90
51
180
0
ARC
8
0
10
330.35
20
-3.025
40
0.5
50
0
51
90
0
ARC
8
0
10
317.35
20
-16.025
40
0.5
50
180
51
270
0
ARC
8
0
10
330.35
20
-16.025
40
0.5
50
270
51
0
0
LINE
8
0
10
22.075
20
-21.575
11
35.075
21
-21.575
0
LINE
8
0
10
22.075
20
-35.575
11
35.075
21
-35.575
0
LINE
8
0
10
21.575
20
-22.075
11
21.575
21
-35.075
0
LINE
8
0
10
35.575
20
-22.075
11
35.575
21
-35.075
0
ARC
8
0
10
22.075
20
-22.075
40
0.5
50
90
51
180
0
ARC
8
0
10
35.075
20
-22.075
40
0.5
50
0
51
90
0
ARC
8
0
10
22.075
20
-35.075
40
0.5
50
180
51
270
0
ARC
8
0
10
35.075
20
-35.075
40
0.5
50
270
51
0
0
LINE
8
0
10
45.8875
20
-21.575
11
58.8875
21
-21.575
0
LINE
8
0
10
45.8875
20
-35.575
11
58.8875
21
-35.575
0
LINE
8
0
10
45.3875
20
-22.075
11
45.3875
21
-35.075
0
LINE
8
0
10
59.3875
20
-22.075
11
59.3875
21
-35.075
0
ARC
8
0
10
45.8875
20
-22.075
40
0.5
50
90
51
180
0
ARC
8
0
10
58.8875
20
-22.075
40
0.5
50
0
51
90
0
ARC
8
0
10
45.8875
20
-35.075
40
0.5
50
180
51
270
0
ARC
8
0
10
58.8875
20
-35.075
40
0.5
50
270
51
0
0
LINE
8
0
10
64.9375
20
-21.575
11
77.9375
21
-21.575
0
LINE
8
0
10
64.9375
20
-35.575
11
77.9375
21
-35.575
0
LINE
8
0
10
64.4375
20
-22.075
11
64.4375
21
-35.075
0
LINE
8
0
10
78.4375
20
-22.075
11
78.4375
21
-35.075
0
ARC
8
0
10
64.9375
20
-22.075
40
0.5
50
90
51
180
0
ARC
8
0
10
77.9375
20
-22.075
40
0.5
50
0
51
90
0
ARC
8
0
10
64.9375
20
-35.075
40
0.5
50
180
51
270
0
ARC
8
0
10
77.9375
20
-35.075
40
0.5
50
270
51
0
0
LINE
8
0
10
83.9875
20
-21.575
11
96.9875
21
-21.575
0
LINE
8
0
10
83.9875
20
-35.575
11
96.9875
21
-35.575
0
LINE
8
0
10
83.4875
20
-22.075
11
83.4875
21
-35.075
0
LINE
8
0
10
97.4875
20
-22.075
11
97.4875
21
-35.075
0
ARC
8
0
10
83.9875
20
-22.075
40
0.5
50
90
51
180
0
ARC
8
0
10
96.9875
20
-22.075
40
0.5
50
0
51
90
0
ARC
8
0
10
83.9875
20
-35.075
40
0.5
50
180
51
270
0
ARC
8
0
10
96.9875
20
-35.075
40
0.5
50
270
51
0
0
LINE
8
0
10
103.0375
20
-21.575
11
116.0375
21
-21.575
0
LINE
8
0
10
103.0375
20
-35.575
11
116.0375
21
-35.575
0
LINE
8
0
10
102.5375
20
-22.075
11
102.5375
21
-35.075
0
LINE
8
0
10
116.5375
20
-22.075
11
116.5375
21
-35.075
0
ARC
8
0
10
103.0375
20
-22.075
40
0.5
50
90
51
180
0
ARC
8
0
10
116.0375
20
-22.075
40
0.5
50
0
51
90
0
ARC
8
0
10
103.0375
20
-35.075
40
0.5
50
180
51
270
0
ARC
8
0
10
116.0375
20
-35.075
40
0.5
50
270
51
0
0
LINE
8
0
10
122.0875
20
-21.575
11
135.0875
21
-21.575
0
LINE
8
0
10
122.0875
20
-35.575
11
135.0875
21
-35.575
0
LINE
8
0
10
121.5875
20
-22.075
11
121.5875
21
-35.075
0
LINE
8
0
10
135.5875
20
-22.075
11
135.5875
21
-35.075
0
ARC
8
0
10
122.0875
20
-22.075
40
0.5
50
90
51
180
0
ARC
8
0
10
135.0875
20
-22.075
40
0.5
50
0
51
90
0
ARC
8
0
10
122.0875
20
-35.075
40
0.5
50
180
51
270
0
ARC
8
0
10
135.0875
20
-35.075
40
0.5
50
270
51
0
0
LINE
8
0
10
141.1375
20
-21.575
11
154.1375
21
-21.575
0
LINE
8
0
10
141.1375
20
-35.575
11
154.1375
21
-35.575
0
LINE
8
0
10
140.6375
20
-22.075
11
140.6375
21
-35.075
0
LINE
8
0
10
154.6375
20
-22.075
11
154.6375
21
-35.075
0
ARC
8
0
10
141.1375
20
-22.075
40
0.5
50
90
51
180
0
ARC
8
0
10
154.1375
20
-22.075
40
0.5
50
0
51
90
0
ARC
8
0
10
141.1375
20
-35.075
40
0.5
50
180
51
270
0
ARC
8
0
10
154.1375
20
-35.075
40
0.5
50
270
51
0
0
LINE
8
0
10
160.1875
20
-21.575
11
173.1875
21
-21.575
0
LINE
8
0
10
160.1875
20
-35.575
11
173.1875
21
-35.575
0
LINE
8
0
10
159.6875
20
-22.075
11
159.6875
21
-35.075
0
LINE
8
0
10
173.6875
20
-22.075
11
173.6875
21
-35.075
0
ARC
8
0
10
160.1875
20
-22.075
40
0.5
50
90
51
180
0
ARC
8
0
10
173.1875
20
-22.075
40
0.5
50
0
51
90
0
ARC
8
0
10
160.1875
20
-35.075
40
0.5
50
180
51
270
0
ARC
8
0
10
173.1875
20
-35.075
40
0.5
50
270
51
0
0
LINE
8
0
10
179.2375
20
-21.575
11
192.2375
21
-21.575
0
LINE
8
0
10
179.2375
20
-35.575
11
192.2375
21
-35.575
0
LINE
8
0
10
178.7375
20
-22.075
11
178.7375
21
-35.075
0
LINE
8
0
10
192.7375
20
-22.075
11
192.7375
21
-35.075
0
ARC
8
0
10
179.2375
20
-22.075
40
0.5
50
90
51
180
0
ARC
8
0
10
192.2375
20
-22.075
40
0.5
50
0
51
90
0
ARC
8
0
10
179.2375
20
-35.075
40
0.5
50
180
51
270
0
ARC
8
0
10
192.2375
20
-35.075
40
0.5
50
270
51
0
0
LINE
8
0
10
198.2875
20
-21.575
11
211.2875
21
-21.575
0
LINE
8
0
10
198.2875
20
-35.575
11
211.2875
21
-35.575
0
LINE
8
0
10
197.7875
20
-22.075
11
197.7875
21
-35.075
0
LINE
8
0
10
211.7875
20
-22.075
11
211.7875
21
-35.075
0
ARC
8
0
10
198.2875
20
-22.075
40
0.5
50
90
51
180
0
ARC
8
0
10
211.2875
20
-22.075
40
0.5
50
0
51
90
0
ARC
8
0
10
198.2875
20
-35.075
40
0.5
50
180
51
270
0
ARC
8
0
10
211.2875
20
-35.075
40
0.5
50
270
51
0
0
LINE
8
0
10
217.3375
20
-21.575
11
230.3375
21
-21.575
0
LINE
8
0
10
217.3375
20
-35.575
11
230.3375
21
-35.575
0
LINE
8
0
10
216.8375
20
-22.075
11
216.8375
21
-35.075
0
LINE
8
0
10
230.8375
20
-22.075
11
230.8375
21
-35.075
0
ARC
8
0
10
217.3375
20
-22.075
40
0.5
50
90
51
180
0
ARC
8
0
10
230.3375
20
-22.075
40
0.5
50
0
51
90
0
ARC
8
0
10
217.3375
20
-35.075
40
0.5
50
180
51
270
0
ARC
8
0
10
230.3375
20
-35.075
40
0.5
50
270
51
0
0
LINE
8
0
10
236.3875
20
-21.575
11
249.3875
21
-21.575
0
LINE
8
0
10
236.3875
20
-35.575
11
249.3875
21
-35.575
0
LINE
8
0
10
235.8875
20
-22.075
11
235.8875
21
-35.075
0
LINE
8
0
10
249.8875
20
-22.075
11
249.8875
21
-35.075
0
ARC
8
0
10
236.3875
20
-22.075
40
0.5
50
90
51
180
0
ARC
8
0
10
249.3875
20
-22.075
40
0.5
50
0
51
90
0
ARC
8
0
10
236.3875
20
-35.075
40
0.5
50
180
51
270
0
ARC
8
0
10
249.3875
20
-35.075
40
0.5
50
270
51
0
0
LINE
8
0
10
255.4375
20
-21.575
11
268.4375
21
-21.575
0
LINE
8
0
10
255.4375
20
-35.575
11
268.4375
21
-35.575
0
LINE
8
0
10
254.9375
20
-22.075
11
254.9375
21
-35.075
0
LINE
8
0
10
268.9375
20
-22.075
11
268.9375
21
-35.075
0
ARC
8
0
10
255.4375
20
-22.075
40
0.5
50
90
51
180
0
ARC
8
0
10
268.4375
20
-22.075
40
0.5
50
0
51
90
0
ARC
8
0
10
255.4375
20
-35.075
40
0.5
50
180
51
270
0
ARC
8
0
10
268.4375
20
-35.075
40
0.5
50
270
51
0
0
LINE
8
0
10
279.25
20
-21.575
11
292.25
21
-21.575
0
LINE
8
0
10
279.25
20
-35.575
11
292.25
21
-35.575
0
LINE
8
0
10
278.75
20
-22.075
11
278.75
21
-35.075
0
LINE
8
0
10
292.75
20
-22.075
11
292.75
21
-35.075
0
ARC
8
0
10
279.25
20
-22.075
40
0.5
50
90
51
180
0
ARC
8
0
10
292.25
20
-22.075
40
0.5
50
0
51
90
0
ARC
8
0
10
279.25
20
-35.075
40
0.5
50
180
51
270
0
ARC
8
0
10
292.25
20
-35.075
40
0.5
50
270
51
0
0
LINE
8
0
10
317.35
20
-21.575
11
330.35
21
-21.575
0
LINE
8
0
10
317.35
20
-35.575
11
330.35
21
-35.575
0
LINE
8
0
10
316.85
20
-22.075
11
316.85
21
-35.075
0
LINE
8
0
10
330.85
20
-22.075
11
330.85
21
-35.075
0
ARC
8
0
10
317.35
20
-22.075
40
0.5
50
90
51
180
0
ARC
8
0
10
330.35
20
-22.075
40
0.5
50
0
51
90
0
ARC
8
0
10
317.35
20
-35.075
40
0.5
50
180
51
270
0
ARC
8
0
10
330.35
20
-35.075
40
0.5
50
270
51
0
0
LINE
8
0
10
19.69375
20
-40.625
11
32.69375
21
-40.625
0
LINE
8
0
10
19.69375
20
-54.625
11
32.69375
21
-54.625
0
LINE
8
0
10
19.19375
20
-41.125
11
19.19375
21
-54.125
0
LINE
8
0
10
33.19375
20
-41.125
11
33.19375
21
-54.125
0
ARC
8
0
10
19.69375
20
-41.125
40
0.5
50
90
51
180
0
ARC
8
0
10
32.69375
20
-41.125
40
0.5
50
0
51
90
0
ARC
8
0
10
19.69375
20
-54.125
40
0.5
50
180
51
270
0
ARC
8
0
10
32.69375
20
-54.125
40
0.5
50
270
51
0
0
LINE
8
0
10
45.8875
20
-40.625
11
58.8875
21
-40.625
0
LINE
8
0
10
45.8875
20
-54.625
11
58.8875
21
-54.625
0
LINE
8
0
10
45.3875
20
-41.125
11
45.3875
21
-54.125
0
LINE
8
0
10
59.3875
20
-41.125
11
59.3875
21
-54.125
0
ARC
8
0
10
45.8875
20
-41.125
40
0.5
50
90
51
180
0
ARC
8
0
10
58.8875
20
-41.125
40
0.5
50
0
51
90
0
ARC
8
0
10
45.8875
20
-54.125
40
0.5
50
180
51
270
0
ARC
8
0
10
58.8875
20
-54.125
40
0.5
50
270
51
0
0
LINE
8
0
10
64.9375
20
-40.625
11
77.9375
21
-40.625
0
LINE
8
0
10
64.9375
20
-54.625
11
77.9375
21
-54.625
0
LINE
8
0
10
64.4375
20
-41.125
11
64.4375
21
-54.125
0
LINE
8
0
10
78.4375
20
-41.125
11
78.4375
21
-54.125
0
ARC
8
0
10
64.9375
20
-41.125
40
0.5
50
90
51
180
0
ARC
8
0
10
77.9375
20
-41.125
40
0.5
50
0
51
90
0
ARC
8
0
10
64.9375
20
-54.125
40
0.5
50
180
51
270
0
ARC
8
0
10
77.9375
20
-54.125
40
0.5
50
270
51
0
0
LINE
8
0
10
83.9875
20
-40.625
11
96.9875
21
-40.625
0
LINE
8
0
10
83.9875
20
-54.625
11
96.9875
21
-54.625
0
LINE
8
0
10
83.4875
20
-41.125
11
83.4875
21
-54.125
0
LINE
8
0
10
97.4875
20
-41.125
11
97.4875
21
-54.125
0
ARC
8
0
10
83.9875
20
-41.125
40
0.5
50
90
51
180
0
ARC
8
0
10
96.9875
20
-41.125
40
0.5
50
0
51
90
0
ARC
8
0
10
83.9875
20
-54.125
40
0.5
50
180
51
270
0
ARC
8
0
10
96.9875
20
-54.125
40
0.5
50
270
51
0
0
LINE
8
0
10
103.0375
20
-40.625
11
116.0375
21
-40.625
0
LINE
8
0
10
103.0375
20
-54.625
11
116.0375
21
-54.625
0
LINE
8
0
10
102.5375
20
-41.125
11
102.5375
21
-54.125
0
LINE
8
0
10
116.5375
20
-41.125
11
116.5375
21
-54.125
0
ARC
8
0
10
103.0375
20
-41.125
40
0.5
50
90
51
180
0
ARC
8
0
10
116.0375
20
-41.125
40
0.5
50
0
51
90
0
ARC
8
0
10
103.0375
20
-54.125
40
0.5
50
180
51
270
0
ARC
8
0
10
116.0375
20
-54.125
40
0.5
50
270
51
0
0
LINE
8
0
10
122.0875
20
-40.625
11
135.0875
21
-40.625
0
LINE
8
0
10
122.0875
20
-54.625
11
135.0875
21
-54.625
0
LINE
8
0
10
121.5875
20
-41.125
11
121.5875
21
-54.125
0
LINE
8
0
10
135.5875
20
-41.125
11
135.5875
21
-54.125
0
ARC
8
0
10
122.0875
20
-41.125
40
0.5
50
90
51
180
0
ARC
8
0
10
135.0875
20
-41.125
40
0.5
50
0
51
90
0
ARC
8
0
10
122.0875
20
-54.125
40
0.5
50
180
51
270
0
ARC
8
0
10
135.0875
20
-54.125
40
0.5
50
270
51
0
0
LINE
8
0
10
141.1375
20
-40.625
11
154.1375
21
-40.625
0
LINE
8
0
10
141.1375
20
-54.625
11
154.1375
21
-54.625
0
LINE
8
0
10
140.6375
20
-41.125
11
140.6375
21
-54.125
0
LINE
8
0
10
154.6375
20
-41.125
11
154.6375
21
-54.125
0
ARC
8
0
10
141.1375
20
-41.125
40
0.5
50
90
51
180
0
ARC
8
0
10
154.1375
20
-41.125
40
0.5
50
0
51
90
0
ARC
8
0
10
141.1375
20
-54.125
40
0.5
50
180
51
270
0
ARC
8
0
10
154.1375
20
-54.125
40
0.5
50
270
51
0
0
LINE
8
0
10
160.1875
20
-40.625
11
173.1875
21
-40.625
0
LINE
8
0
10
160.1875
20
-54.625
11
173.1875
21
-54.625
0
LINE
8
0
10
159.6875
20
-41.125
11
159.6875
21
-54.125
0
LINE
8
0
10
173.6875
20
-41.125
11
173.6875
21
-54.125
0
ARC
8
0
10
160.1875
20
-41.125
40
0.5
50
90
51
180
0
ARC
8
0
10
173.1875
20
-41.125
40
0.5
50
0
51
90
0
ARC
8
0
10
160.1875
20
-54.125
40
0.5
50
180
51
270
0
ARC
8
0
10
173.1875
20
-54.125
40
0.5
50
270
51
0
0
LINE
8
0
10
179.2375
20
-40.625
11
192.2375
21
-40.625
0
LINE
8
0
10
179.2375
20
-54.625
11
192.2375
21
-54.625
0
LINE
8
0
10
178.7375
20
-41.125
11
178.7375
21
-54.125
0
LINE
8
0
10
192.7375
20
-41.125
11
192.7375
21
-54.125
0
ARC
8
0
10
179.2375
20
-41.125
40
0.5
50
90
51
180
0
ARC
8
0
10
192.2375
20
-41.125
40
0.5
50
0
51
90
0
ARC
8
0
10
179.2375
20
-54.125
40
0.5
50
180
51
270
0
ARC
8
0
10
192.2375
20
-54.125
40
0.5
50
270
51
0
0
LINE
8
0
10
198.2875
20
-40.625
11
211.2875
21
-40.625
0
LINE
8
0
10
198.2875
20
-54.625
11
211.2875
21
-54.625
0
LINE
8
0
10
197.7875
20
-41.125
11
197.7875
21
-54.125
0
LINE
8
0
10
211.7875
20
-41.125
11
211.7875
21
-54.125
0
ARC
8
0
10
198.2875
20
-41.125
40
0.5
50
90
51
180
0
ARC
8
0
10
211.2875
20
-41.125
40
0.5
50
0
51
90
0
ARC
8
0
10
198.2875
20
-54.125
40
0.5
50
180
51
270
0
ARC
8
0
10
211.2875
20
-54.125
40
0.5
50
270
51
0
0
LINE
8
0
10
217.3375
20
-40.625
11
230.3375
21
-40.625
0
LINE
8
0
10
217.3375
20
-54.625
11
230.3375
21
-54.625
0
LINE
8
0
10
216.8375
20
-41.125
11
216.8375
21
-54.125
0
LINE
8
0
10
230.8375
20
-41.125
11
230.8375
21
-54.125
0
ARC
8
0
10
217.3375
20
-41.125
40
0.5
50
90
51
180
0
ARC
8
0
10
230.3375
20
-41.125
40
0.5
50
0
51
90
0
ARC
8
0
10
217.3375
20
-54.125
40
0.5
50
180
51
270
0
ARC
8
0
10
230.3375
20
-54.125
40
0.5
50
270
51
0
0
LINE
8
0
10
236.3875
20
-40.625
11
249.3875
21
-40.625
0
LINE
8
0
10
236.3875
20
-54.625
11
249.3875
21
-54.625
0
LINE
8
0
10
235.8875
20
-41.125
11
235.8875
21
-54.125
0
LINE
8
0
10
249.8875
20
-41.125
11
249.8875
21
-54.125
0
ARC
8
0
10
236.3875
20
-41.125
40
0.5
50
90
51
180
0
ARC
8
0
10
249.3875
20
-41.125
40
0.5
50
0
51
90
0
ARC
8
0
10
236.3875
20
-54.125
40
0.5
50
180
51
270
0
ARC
8
0
10
249.3875
20
-54.125
40
0.5
50
270
51
0
0
LINE
8
0
10
267.34375
20
-40.625
11
280.34375
21
-40.625
0
LINE
8
0
10
267.34375
20
-54.625
11
280.34375
21
-54.625
0
LINE
8
0
10
266.84375
20
-41.125
11
266.84375
21
-54.125
0
LINE
8
0
10
280.84375
20
-41.125
11
280.84375
21
-54.125
0
ARC
8
0
10
267.34375
20
-41.125
40
0.5
50
90
51
180
0
ARC
8
0
10
280.34375
20
-41.125
40
0.5
50
0
51
90
0
ARC
8
0
10
267.34375
20
-54.125
40
0.5
50
180
51
270
0
ARC
8
0
10
280.34375
20
-54.125
40
0.5
50
270
51
0
0
LINE
8
0
10
258.90575
20
-41.625
11
264.90575
21
-41.625
0
LINE
8
0
10
258.90575
20
-56.625
11
264.90575
21
-56.625
0
LINE
8
0
10
258.40575
20
-42.125
11
258.40575
21
-56.125
0
LINE
8
0
10
265.40575
20
-42.125
11
265.40575
21
-56.125
0
ARC
8
0
10
258.90575
20
-42.125
40
0.5
50
90
51
180
0
ARC
8
0
10
264.90575
20
-42.125
40
0.5
50
0
51
90
0
ARC
8
0
10
258.90575
20
-56.125
40
0.5
50
180
51
270
0
ARC
8
0
10
264.90575
20
-56.125
40
0.5
50
270
51
0
0
LINE
8
0
10
282.78175
20
-41.625
11
288.78175
21
-41.625
0
LINE
8
0
10
282.78175
20
-56.625
11
288.78175
21
-56.625
0
LINE
8
0
10
282.28175
20
-42.125
11
282.28175
21
-56.125
0
LINE
8
0
10
289.28175
20
-42.125
11
289.28175
21
-56.125
0
ARC
8
0
10
282.78175
20
-42.125
40
0.5
50
90
51
180
0
ARC
8
0
10
288.78175
20
-42.125
40
0.5
50
0
51
90
0
ARC
8
0
10
282.78175
20
-56.125
40
0.5
50
180
51
270
0
ARC
8
0
10
288.78175
20
-56.125
40
0.5
50
270
51
0
0
LINE
8
0
10
317.35
20
-40.625
11
330.35
21
-40.625
0
LINE
8
0
10
317.35
20
-54.625
11
330.35
21
-54.625
0
LINE
8
0
10
316.85
20
-41.125
11
316.85
21
-54.125
0
LINE
8
0
10
330.85
20
-41.125
11
330.85
21
-54.125
0
ARC
8
0
10
317.35
20
-41.125
40
0.5
50
90
51
180
0
ARC
8
0
10
330.35
20
-41.125
40
0.5
50
0
51
90
0
ARC
8
0
10
317.35
20
-54.125
40
0.5
50
180
51
270
0
ARC
8
0
10
330.35
20
-54.125
40
0.5
50
270
51
0
0
LINE
8
0
10
17.3125
20
-59.675
11
30.3125
21
-59.675
0
LINE
8
0
10
17.3125
20
-73.675
11
30.3125
21
-73.675
0
LINE
8
0
10
16.8125
20
-60.175
11
16.8125
21
-73.175
0
LINE
8
0
10
30.8125
20
-60.175
11
30.8125
21
-73.175
0
ARC
8
0
10
17.3125
20
-60.175
40
0.5
50
90
51
180
0
ARC
8
0
10
30.3125
20
-60.175
40
0.5
50
0
51
90
0
ARC
8
0
10
17.3125
20
-73.175
40
0.5
50
180
51
270
0
ARC
8
0
10
30.3125
20
-73.175
40
0.5
50
270
51
0
0
LINE
8
0
10
8.8745
20
-60.675
11
14.8745
21
-60.675
0
LINE
8
0
10
8.8745
20
-75.675
11
14.8745
21
-75.675
0
LINE
8
0
10
8.3745
20
-61.175
11
8.3745
21
-75.175
0
LINE
8
0
10
15.3745
20
-61.175
11
15.3745
21
-75.175
0
ARC
8
0
10
8.8745
20
-61.175
40
0.5
50
90
51
180
0
ARC
8
0
10
14.8745
20
-61.175
40
0.5
50
0
51
90
0
ARC
8
0
10
8.8745
20
-75.175
40
0.5
50
180
51
270
0
ARC
8
0
10
14.8745
20
-75.175
40
0.5
50
270
51
0
0
LINE
8
0
10
32.7505
20
-60.675
11
38.7505
21
-60.675
0
LINE
8
0
10
32.7505
20
-75.675
11
38.7505
21
-75.675
0
LINE
8
0
10
32.2505
20
-61.175
11
32.2505
21
-75.175
0
LINE
8
0
10
39.2505
20
-61.175
11
39.2505
21
-75.175
0
ARC
8
0
10
32.7505
20
-61.175
40
0.5
50
90
51
180
0
ARC
8
0
10
38.7505
20
-61.175
40
0.5
50
0
51
90
0
ARC
8
0
10
32.7505
20
-75.175
40
0.5
50
180
51
270
0
ARC
8
0
10
38.7505
20
-75.175
40
0.5
50
270
51
0
0
LINE
8
0
10
45.8875
20
-59.675
11
58.8875
21
-59.675
0
LINE
8
0
10
45.8875
20
-73.675
11
58.8875
21
-73.675
0
LINE
8
0
10
45.3875
20
-60.175
11
45.3875
21
-73.175
0
LINE
8
0
10
59.3875
20
-60.175
11
59.3875
21
-73.175
0
ARC
8
0
10
45.8875
20
-60.175
40
0.5
50
90
51
180
0
ARC
8
0
10
58.8875
20
-60.175
40
0.5
50
0
51
90
0
ARC
8
0
10
45.8875
20
-73.175
40
0.5
50
180
51
270
0
ARC
8
0
10
58.8875
20
-73.175
40
0.5
50
270
51
0
0
LINE
8
0
10
64.9375
20
-59.675
11
77.9375
21
-59.675
0
LINE
8
0
10
64.9375
20
-73.675
11
77.9375
21
-73.675
0
LINE
8
0
10
64.4375
20
-60.175
11
64.4375
21
-73.175
0
LINE
8
0
10
78.4375
20
-60.175
11
78.4375
21
-73.175
0
ARC
8
0
10
64.9375
20
-60.175
40
0.5
50
90
51
180
0
ARC
8
0
10
77.9375
20
-60.175
40
0.5
50
0
51
90
0
ARC
8
0
10
64.9375
20
-73.175
40
0.5
50
180
51
270
0
ARC
8
0
10
77.9375
20
-73.175
40
0.5
50
270
51
0
0
LINE
8
0
10
83.9875
20
-59.675
11
96.9875
21
-59.675
0
LINE
8
0
10
83.9875
20
-73.675
11
96.9875
21
-73.675
0
LINE
8
0
10
83.4875
20
-60.175
11
83.4875
21
-73.175
0
LINE
8
0
10
97.4875
20
-60.175
11
97.4875
21
-73.175
0
ARC
8
0
10
83.9875
20
-60.175
40
0.5
50
90
51
180
0
ARC
8
0
10
96.9875
20
-60.175
40
0.5
50
0
51
90
0
ARC
8
0
10
83.9875
20
-73.175
40
0.5
50
180
51
270
0
ARC
8
0
10
96.9875
20
-73.175
40
0.5
50
270
51
0
0
LINE
8
0
10
103.0375
20
-59.675
11
116.0375
21
-59.675
0
LINE
8
0
10
103.0375
20
-73.675
11
116.0375
21
-73.675
0
LINE
8
0
10
102.5375
20
-60.175
11
102.5375
21
-73.175
0
LINE
8
0
10
116.5375
20
-60.175
11
116.5375
21
-73.175
0
ARC
8
0
10
103.0375
20
-60.175
40
0.5
50
90
51
180
0
ARC
8
0
10
116.0375
20
-60.175
40
0.5
50
0
51
90
0
ARC
8
0
10
103.0375
20
-73.175
40
0.5
50
180
51
270
0
ARC
8
0
10
116.0375
20
-73.175
40
0.5
50
270
51
0
0
LINE
8
0
10
122.0875
20
-59.675
11
135.0875
21
-59.675
0
LINE
8
0
10
122.0875
20
-73.675
11
135.0875
21
-73.675
0
LINE
8
0
10
121.5875
20
-60.175
11
121.5875
21
-73.175
0
LINE
8
0
10
135.5875
20
-60.175
11
135.5875
21
-73.175
0
ARC
8
0
10
122.0875
20
-60.175
40
0.5
50
90
51
180
0
ARC
8
0
10
135.0875
20
-60.175
40
0.5
50
0
51
90
0
ARC
8
0
10
122.0875
20
-73.175
40
0.5
50
180
51
270
0
ARC
8
0
10
135.0875
20
-73.175
40
0.5
50
270
51
0
0
LINE
8
0
10
141.1375
20
-59.675
11
154.1375
21
-59.675
0
LINE
8
0
10
141.1375
20
-73.675
11
154.1375
21
-73.675
0
LINE
8
0
10
140.6375
20
-60.175
11
140.6375
21
-73.175
0
LINE
8
0
10
154.6375
20
-60.175
11
154.6375
21
-73.175
0
ARC
8
0
10
141.1375
20
-60.175
40
0.5
50
90
51
180
0
ARC
8
0
10
154.1375
20
-60.175
40
0.5
50
0
51
90
0
ARC
8
0
10
141.1375
20
-73.175
40
0.5
50
180
51
270
0
ARC
8
0
10
154.1375
20
-73.175
40
0.5
50
270
51
0
0
LINE
8
0
10
160.1875
20
-59.675
11
173.1875
21
-59.675
0
LINE
8
0
10
160.1875
20
-73.675
11
173.1875
21
-73.675
0
LINE
8
0
10
159.6875
20
-60.175
11
159.6875
21
-73.175
0
LINE
8
0
10
173.6875
20
-60.175
11
173.6875
21
-73.175
0
ARC
8
0
10
160.1875
20
-60.175
40
0.5
50
90
51
180
0
ARC
8
0
10
173.1875
20
-60.175
40
0.5
50
0
51
90
0
ARC
8
0
10
160.1875
20
-73.175
40
0.5
50
180
51
270
0
ARC
8
0
10
173.1875
20
-73.175
40
0.5
50
270
51
0
0
LINE
8
0
10
179.2375
20
-59.675
11
192.2375
21
-59.675
0
LINE
8
0
10
179.2375
20
-73.675
11
192.2375
21
-73.675
0
LINE
8
0
10
178.7375
20
-60.175
11
178.7375
21
-73.175
0
LINE
8
0
10
192.7375
20
-60.175
11
192.7375
21
-73.175
0
ARC
8
0
10
179.2375
20
-60.175
40
0.5
50
90
51
180
0
ARC
8
0
10
192.2375
20
-60.175
40
0.5
50
0
51
90
0
ARC
8
0
10
179.2375
20
-73.175
40
0.5
50
180
51
270
0
ARC
8
0
10
192.2375
20
-73.175
40
0.5
50
270
51
0
0
LINE
8
0
10
198.2875
20
-59.675
11
211.2875
21
-59.675
0
LINE
8
0
10
198.2875
20
-73.675
11
211.2875
21
-73.675
0
LINE
8
0
10
197.7875
20
-60.175
11
197.7875
21
-73.175
0
LINE
8
0
10
211.7875
20
-60.175
11
211.7875
21
-73.175
0
ARC
8
0
10
198.2875
20
-60.175
40
0.5
50
90
51
180
0
ARC
8
0
10
211.2875
20
-60.175
40
0.5
50
0
51
90
0
ARC
8
0
10
198.2875
20
-73.175
40
0.5
50
180
51
270
0
ARC
8
0
10
211.2875
20
-73.175
40
0.5
50
270
51
0
0
LINE
8
0
10
217.3375
20
-59.675
11
230.3375
21
-59.675
0
LINE
8
0
10
217.3375
20
-73.675
11
230.3375
21
-73.675
0
LINE
8
0
10
216.8375
20
-60.175
11
216.8375
21
-73.175
0
LINE
8
0
10
230.8375
20
-60.175
11
230.8375
21
-73.175
0
ARC
8
0
10
217.3375
20
-60.175
40
0.5
50
90
51
180
0
ARC
8
0
10
230.3375
20
-60.175
40
0.5
50
0
51
90
0
ARC
8
0
10
217.3375
20
-73.175
40
0.5
50
180
51
270
0
ARC
8
0
10
230.3375
20
-73.175
40
0.5
50
270
51
0
0
LINE
8
0
10
243.53125
20
-59.675
11
256.53125
21
-59.675
0
LINE
8
0
10
243.53125
20
-73.675
11
256.53125
21
-73.675
0
LINE
8
0
10
243.03125
20
-60.175
11
243.03125
21
-73.175
0
LINE
8
0
10
257.03125
20
-60.175
11
257.03125
21
-73.175
0
ARC
8
0
10
243.53125
20
-60.175
40
0.5
50
90
51
180
0
ARC
8
0
10
256.53125
20
-60.175
40
0.5
50
0
51
90
0
ARC
8
0
10
243.53125
20
-73.175
40
0.5
50
180
51
270
0
ARC
8
0
10
256.53125
20
-73.175
40
0.5
50
270
51
0
0
LINE
8
0
10
269.725
20
-59.675
11
282.725
21
-59.675
0
LINE
8
0
10
269.725
20
-73.675
11
282.725
21
-73.675
0
LINE
8
0
10
269.225
20
-60.175
11
269.225
21
-73.175
0
LINE
8
0
10
283.225
20
-60.175
11
283.225
21
-73.175
0
ARC
8
0
10
269.725
20
-60.175
40
0.5
50
90
51
180
0
ARC
8
0
10
282.725
20
-60.175
40
0.5
50
0
51
90
0
ARC
8
0
10
269.725
20
-73.175
40
0.5
50
180
51
270
0
ARC
8
0
10
282.725
20
-73.175
40
0.5
50
270
51
0
0
LINE
8
0
10
317.35
20
-59.675
11
330.35
21
-59.675
0
LINE
8
0
10
317.35
20
-73.675
11
330.35
21
-73.675
0
LINE
8
0
10
316.85
20
-60.175
11
316.85
21
-73.175
0
LINE
8
0
10
330.85
20
-60.175
11
330.85
21
-73.175
0
ARC
8
0
10
317.35
20
-60.175
40
0.5
50
90
51
180
0
ARC
8
0
10
330.35
20
-60.175
40
0.5
50
0
51
90
0
ARC
8
0
10
317.35
20
-73.175
40
0.5
50
180
51
270
0
ARC
8
0
10
330.35
20
-73.175
40
0.5
50
270
51
0
0
LINE
8
0
10
293.5375
20
-64.4375
11
306.5375
21
-64.4375
0
LINE
8
0
10
293.5375
20
-78.4375
11
306.5375
21
-78.4375
0
LINE
8
0
10
293.0375
20
-64.9375
11
293.0375
21
-77.9375
0
LINE
8
0
10
307.0375
20
-64.9375
11
307.0375
21
-77.9375
0
ARC
8
0
10
293.5375
20
-64.9375
40
0.5
50
90
51
180
0
ARC
8
0
10
306.5375
20
-64.9375
40
0.5
50
0
51
90
0
ARC
8
0
10
293.5375
20
-77.9375
40
0.5
50
180
51
270
0
ARC
8
0
10
306.5375
20
-77.9375
40
0.5
50
270
51
0
0
LINE
8
0
10
7.7875
20
-78.725
11
20.7875
21
-78.725
0
LINE
8
0
10
7.7875
20
-92.725
11
20.7875
21
-92.725
0
LINE
8
0
10
7.2875
20
-79.225
11
7.2875
21
-92.225
0
LINE
8
0
10
21.2875
20
-79.225
11
21.2875
21
-92.225
0
ARC
8
0
10
7.7875
20
-79.225
40
0.5
50
90
51
180
0
ARC
8
0
10
20.7875
20
-79.225
40
0.5
50
0
51
90
0
ARC
8
0
10
7.7875
20
-92.225
40
0.5
50
180
51
270
0
ARC
8
0
10
20.7875
20
-92.225
40
0.5
50
270
51
0
0
LINE
8
0
10
31.6
20
-78.725
11
44.6
21
-78.725
0
LINE
8
0
10
31.6
20
-92.725
11
44.6
21
-92.725
0
LINE
8
0
10
31.1
20
-79.225
11
31.1
21
-92.225
0
LINE
8
0
10
45.1
20
-79.225
11
45.1
21
-92.225
0
ARC
8
0
10
31.6
20
-79.225
40
0.5
50
90
51
180
0
ARC
8
0
10
44.6
20
-79.225
40
0.5
50
0
51
90
0
ARC
8
0
10
31.6
20
-92.225
40
0.5
50
180
51
270
0
ARC
8
0
10
44.6
20
-92.225
40
0.5
50
270
51
0
0
LINE
8
0
10
55.4125
20
-78.725
11
68.4125
21
-78.725
0
LINE
8
0
10
55.4125
20
-92.725
11
68.4125
21
-92.725
0
LINE
8
0
10
54.9125
20
-79.225
11
54.9125
21
-92.225
0
LINE
8
0
10
68.9125
20
-79.225
11
68.9125
21
-92.225
0
ARC
8
0
10
55.4125
20
-79.225
40
0.5
50
90
51
180
0
ARC
8
0
10
68.4125
20
-79.225
40
0.5
50
0
51
90
0
ARC
8
0
10
55.4125
20
-92.225
40
0.5
50
180
51
270
0
ARC
8
0
10
68.4125
20
-92.225
40
0.5
50
270
51
0
0
LINE
8
0
10
129.23125
20
-78.725
11
142.23125
21
-78.725
0
LINE
8
0
10
129.23125
20
-92.725
11
142.23125
21
-92.725
0
LINE
8
0
10
128.73125
20
-79.225
11
128.73125
21
-92.225
0
LINE
8
0
10
142.73125
20
-79.225
11
142.73125
21
-92.225
0
ARC
8
0
10
129.23125
20
-79.225
40
0.5
50
90
51
180
0
ARC
8
0
10
142.23125
20
-79.225
40
0.5
50
0
51
90
0
ARC
8
0
10
129.23125
20
-92.225
40
0.5
50
180
51
270
0
ARC
8
0
10
142.23125
20
-92.225
40
0.5
50
270
51
0
0
LINE
8
0
10
82.73125
20
-79.725
11
88.73125
21
-79.725
0
LINE
8
0
10
82.73125
20
-94.725
11
88.73125
21
-94.725
0
LINE
8
0
10
82.23125
20
-80.225
11
82.23125
21
-94.225
0
LINE
8
0
10
89.23125
20
-80.225
11
89.23125
21
-94.225
0
ARC
8
0
10
82.73125
20
-80.225
40
0.5
50
90
51
180
0
ARC
8
0
10
88.73125
20
-80.225
40
0.5
50
0
51
90
0
ARC
8
0
10
82.73125
20
-94.225
40
0.5
50
180
51
270
0
ARC
8
0
10
88.73125
20
-94.225
40
0.5
50
270
51
0
0
LINE
8
0
10
182.73125
20
-79.725
11
188.73125
21
-79.725
0
LINE
8
0
10
182.73125
20
-94.725
11
188.73125
21
-94.725
0
LINE
8
0
10
182.23125
20
-80.225
11
182.23125
21
-94.225
0
LINE
8
0
10
189.23125
20
-80.225
11
189.23125
21
-94.225
0
ARC
8
0
10
182.73125
20
-80.225
40
0.5
50
90
51
180
0
ARC
8
0
10
188.73125
20
-80.225
40
0.5
50
0
51
90
0
ARC
8
0
10
182.73125
20
-94.225
40
0.5
50
180
51
270
0
ARC
8
0
10
188.73125
20
-94.225
40
0.5
50
270
51
0
0
LINE
8
0
10
200.66875
20
-78.725
11
213.66875
21
-78.725
0
LINE
8
0
10
200.66875
20
-92.725
11
213.66875
21
-92.725
0
LINE
8
0
10
200.16875
20
-79.225
11
200.16875
21
-92.225
0
LINE
8
0
10
214.16875
20
-79.225
11
214.16875
21
-92.225
0
ARC
8
0
10
200.66875
20
-79.225
40
0.5
50
90
51
180
0
ARC
8
0
10
213.66875
20
-79.225
40
0.5
50
0
51
90
0
ARC
8
0
10
200.66875
20
-92.225
40
0.5
50
180
51
270
0
ARC
8
0
10
213.66875
20
-92.225
40
0.5
50
270
51
0
0
LINE
8
0
10
224.48125
20
-78.725
11
237.48125
21
-78.725
0
LINE
8
0
10
224.48125
20
-92.725
11
237.48125
21
-92.725
0
LINE
8
0
10
223.98125
20
-79.225
11
223.98125
21
-92.225
0
LINE
8
0
10
237.98125
20
-79.225
11
237.98125
21
-92.225
0
ARC
8
0
10
224.48125
20
-79.225
40
0.5
50
90
51
180
0
ARC
8
0
10
237.48125
20
-79.225
40
0.5
50
0
51
90
0
ARC
8
0
10
224.48125
20
-92.225
40
0.5
50
180
51
270
0
ARC
8
0
10
237.48125
20
-92.225
40
0.5
50
270
51
0
0
LINE
8
0
10
248.29375
20
-78.725
11
261.29375
21
-78.725
0
LINE
8
0
10
248.29375
20
-92.725
11
261.29375
21
-92.725
0
LINE
8
0
10
247.79375
20
-79.225
11
247.79375
21
-92.225
0
LINE
8
0
10
261.79375
20
-79.225
11
261.79375
21
-92.225
0
ARC
8
0
10
248.29375
20
-79.225
40
0.5
50
90
51
180
0
ARC
8
0
10
261.29375
20
-79.225
40
0.5
50
0
51
90
0
ARC
8
0
10
248.29375
20
-92.225
40
0.5
50
180
51
270
0
ARC
8
0
10
261.29375
20
-92.225
40
0.5
50
270
51
0
0
LINE
8
0
10
274.4875
20
-83.4875
11
287.4875
21
-83.4875
0
LINE
8
0
10
274.4875
20
-97.4875
11
287.4875
21
-97.4875
0
LINE
8
0
10
273.9875
20
-83.9875
11
273.9875
21
-96.9875
0
LINE
8
0
10
287.9875
20
-83.9875
11
287.9875
21
-96.9875
0
ARC
8
0
10
274.4875
20
-83.9875
40
0.5
50
90
51
180
0
ARC
8
0
10
287.4875
20
-83.9875
40
0.5
50
0
51
90
0
ARC
8
0
10
274.4875
20
-96.9875
40
0.5
50
180
51
270
0
ARC
8
0
10
287.4875
20
-96.9875
40
0.5
50
270
51
0
0
LINE
8
0
10
293.5375
20
-83.4875
11
306.5375
21
-83.4875
0
LINE
8
0
10
293.5375
20
-97.4875
11
306.5375
21
-97.4875
0
LINE
8
0
10
293.0375
20
-83.9875
11
293.0375
21
-96.9875
0
LINE
8
0
10
307.0375
20
-83.9875
11
307.0375
21
-96.9875
0
ARC
8
0
10
293.5375
20
-83.9875
40
0.5
50
90
51
180
0
ARC
8
0
10
306.5375
20
-83.9875
40
0.5
50
0
51
90
0
ARC
8
0
10
293.5375
20
-96.9875
40
0.5
50
180
51
270
0
ARC
8
0
10
306.5375
20
-96.9875
40
0.5
50
270
51
0
0
LINE
8
0
10
312.5875
20
-83.4875
11
325.5875
21
-83.4875
0
LINE
8
0
10
312.5875
20
-97.4875
11
325.5875
21
-97.4875
0
LINE
8
0
10
312.0875
20
-83.9875
11
312.0875
21
-96.9875
0
LINE
8
0
10
326.0875
20
-83.9875
11
326.0875
21
-96.9875
0
ARC
8
0
10
312.5875
20
-83.9875
40
0.5
50
90
51
180
0
ARC
8
0
10
325.5875
20
-83.9875
40
0.5
50
0
51
90
0
ARC
8
0
10
312.5875
20
-96.9875
40
0.5
50
180
51
270
0
ARC
8
0
10
325.5875
20
-96.9875
40
0.5
50
270
51
0
0
LINE
8
0
10
0
20
-100.0125
11
333.375
21
-100.0125
0
LINE
8
0
10
0
20
0
11
333.375
21
0
0
LINE
8
0
10
0
20
-100.0125
11
0
21
0
0
LINE
8
0
10
333.375
20
-100.0125
11
333.375
21
0
0
ENDSEC
0
EOF