<svg width="333.375mm" height="100.013mm" viewBox="0 0 333.375 100.013" xmlns="http://www.w3.org/2000/svg"><g id="svgGroup" stroke-linecap="round" fill-rule="evenodd" font-size="9pt" stroke="#000" stroke-width="0.25mm" fill="none" style="stroke:#000;stroke-width:0.25mm;fill:none"><path d="M 0 100.013 L 333.375 100.013 L 333.375 0 L 0 0 L 0 100.013 Z M 22.075 21.575 L 35.075 21.575 A 0.5 0.5 0 0 1 35.575 22.075 L 35.575 35.075 A 0.5 0.5 0 0 1 35.075 35.575 L 22.075 35.575 A 0.5 0.5 0 0 1 21.575 35.075 L 21.575 22.075 A 0.5 0.5 0 0 1 22.075 21.575 Z M 45.888 21.575 L 58.888 21.575 A 0.5 0.5 0 0 1 59.388 22.075 L 59.388 35.075 A 0.5 0.5 0 0 1 58.888 35.575 L 45.888 35.575 A 0.5 0.5 0 0 1 45.388 35.075 L 45.388 22.075 A 0.5 0.5 0 0 1 45.888 21.575 Z M 64.938 21.575 L 77.938 21.575 A 0.5 0.5 0 0 1 78.438 22.075 L 78.438 35.075 A 0.5 0.5 0 0 1 77.938 35.575 L 64.938 35.575 A 0.5 0.5 0 0 1 64.438 35.075 L 64.438 22.075 A 0.5 0.5 0 0 1 64.938 21.575 Z M 83.988 21.575 L 96.988 21.575 A 0.5 0.5 0 0 1 97.488 22.075 L 97.488 35.075 A 0.5 0.5 0 0 1 96.988 35.575 L 83.988 35.575 A 0.5 0.5 0 0 1 83.488 35.075 L 83.488 22.075 A 0.5 0.5 0 0 1 83.988 21.575 Z M 103.038 21.575 L 116.038 21.575 A 0.5 0.5 0 0 1 116.538 22.075 L 116.538 35.075 A 0.5 0.5 0 0 1 116.038 35.575 L 103.038 35.575 A 0.5 0.5 0 0 1 102.538 35.075 L 102.538 22.075 A 0.5 0.5 0 0 1 103.038 21.575 Z M 122.088 21.575 L 135.088 21.575 A 0.5 0.5 0 0 1 135.588 22.075 L 135.588 35.075 A 0.5 0.5 0 0 1 135.088 35.575 L 122.088 35.575 A 0.5 0.5 0 0 1 121.588 35.075 L 121.588 22.075 A 0.5 0.5 0 0 1 122.088 21.575 Z M 141.138 21.575 L 154.138 21.575 A 0.5 0.5 0 0 1 154.638 22.075 L 154.638 35.075 A 0.5 0.5 0 0 1 154.138 35.575 L 141.138 35.575 A 0.5 0.5 0 0 1 140.638 35.075 L 140.638 22.075 A 0.5 0.5 0 0 1 141.138 21.575 Z M 160.188 21.575 L 173.188 21.575 A 0.5 0.5 0 0 1 173.688 22.075 L 173.688 35.075 A 0.5 0.5 0 0 1 173.188 35.575 L 160.188 35.575 A 0.5 0.5 0 0 1 159.688 35.075 L 159.688 22.075 A 0.5 0.5 0 0 1 160.188 21.575 Z M 179.238 21.575 L 192.238 21.575 A 0.5 0.5 0 0 1 192.738 22.075 L 192.738 35.075 A 0.5 0.5 0 0 1 192.238 35.575 L 179.238 35.575 A 0.5 0.5 0 0 1 178.738 35.075 L 178.738 22.075 A 0.5 0.5 0 0 1 179.238 21.575 Z M 198.288 21.575 L 211.288 21.575 A 0.5 0.5 0 0 1 211.788 22.075 L 211.788 35.075 A 0.5 0.5 0 0 1 211.288 35.575 L 198.288 35.575 A 0.5 0.5 0 0 1 197.788 35.075 L 197.788 22.075 A 0.5 0.5 0 0 1 198.288 21.575 Z M 217.338 21.575 L 230.338 21.575 A 0.5 0.5 0 0 1 230.838 22.075 L 230.838 35.075 A 0.5 0.5 0 0 1 230.338 35.575 L 217.338 35.575 A 0.5 0.5 0 0 1 216.838 35.075 L 216.838 22.075 A 0.5 0.5 0 0 1 217.338 21.575 Z M 236.388 21.575 L 249.388 21.575 A 0.5 0.5 0 0 1 249.888 22.075 L 249.888 35.075 A 0.5 0.5 0 0 1 249.388 35.575 L 236.388 35.575 A 0.5 0.5 0 0 1 235.888 35.075 L 235.888 22.075 A 0.5 0.5 0 0 1 236.388 21.575 Z M 255.438 21.575 L 268.438 21.575 A 0.5 0.5 0 0 1 268.938 22.075 L 268.938 35.075 A 0.5 0.5 0 0 1 268.438 35.575 L 255.438 35.575 A 0.5 0.5 0 0 1 254.938 35.075 L 254.938 22.075 A 0.5 0.5 0 0 1 255.438 21.575 Z M 279.25 21.575 L 292.25 21.575 A 0.5 0.5 0 0 1 292.75 22.075 L 292.75 35.075 A 0.5 0.5 0 0 1 292.25 35.575 L 279.25 35.575 A 0.5 0.5 0 0 1 278.75 35.075 L 278.75 22.075 A 0.5 0.5 0 0 1 279.25 21.575 Z M 317.35 21.575 L 330.35 21.575 A 0.5 0.5 0 0 1 330.85 22.075 L 330.85 35.075 A 0.5 0.5 0 0 1 330.35 35.575 L 317.35 35.575 A 0.5 0.5 0 0 1 316.85 35.075 L 316.85 22.075 A 0.5 0.5 0 0 1 317.35 21.575 Z M 19.694 40.625 L 32.694 40.625 A 0.5 0.5 0 0 1 33.194 41.125 L 33.194 54.125 A 0.5 0.5 0 0 1 32.694 54.625 L 19.694 54.625 A 0.5 0.5 0 0 1 19.194 54.125 L 19.194 41.125 A 0.5 0.5 0 0 1 19.694 40.625 Z M 45.888 40.625 L 58.888 40.625 A 0.5 0.5 0 0 1 59.388 41.125 L 59.388 54.125 A 0.5 0.5 0 0 1 58.888 54.625 L 45.888 54.625 A 0.5 0.5 0 0 1 45.388 54.125 L 45.388 41.125 A 0.5 0.5 0 0 1 45.888 40.625 Z M 64.938 40.625 L 77.938 40.625 A 0.5 0.5 0 0 1 78.438 41.125 L 78.438 54.125 A 0.5 0.5 0 0 1 77.938 54.625 L 64.938 54.625 A 0.5 0.5 0 0 1 64.438 54.125 L 64.438 41.125 A 0.5 0.5 0 0 1 64.938 40.625 Z M 83.988 40.625 L 96.988 40.625 A 0.5 0.5 0 0 1 97.488 41.125 L 97.488 54.125 A 0.5 0.5 0 0 1 96.988 54.625 L 83.988 54.625 A 0.5 0.5 0 0 1 83.488 54.125 L 83.488 41.125 A 0.5 0.5 0 0 1 83.988 40.625 Z M 103.038 40.625 L 116.038 40.625 A 0.5 0.5 0 0 1 116.538 41.125 L 116.538 54.125 A 0.5 0.5 0 0 1 116.038 54.625 L 103.038 54.625 A 0.5 0.5 0 0 1 102.538 54.125 L 102.538 41.125 A 0.5 0.5 0 0 1 103.038 40.625 Z M 122.088 40.625 L 135.088 40.625 A 0.5 0.5 0 0 1 135.588 41.125 L 135.588 54.125 A 0.5 0.5 0 0 1 135.088 54.625 L 122.088 54.625 A 0.5 0.5 0 0 1 121.588 54.125 L 121.588 41.125 A 0.5 0.5 0 0 1 122.088 40.625 Z M 141.138 40.625 L 154.138 40.625 A 0.5 0.5 0 0 1 154.638 41.125 L 154.638 54.125 A 0.5 0.5 0 0 1 154.138 54.625 L 141.138 54.625 A 0.5 0.5 0 0 1 140.638 54.125 L 140.638 41.125 A 0.5 0.5 0 0 1 141.138 40.625 Z M 160.188 40.625 L 173.188 40.625 A 0.5 0.5 0 0 1 173.688 41.125 L 173.688 54.125 A 0.5 0.5 0 0 1 173.188 54.625 L 160.188 54.625 A 0.5 0.5 0 0 1 159.688 54.125 L 159.688 41.125 A 0.5 0.5 0 0 1 160.188 40.625 Z M 179.238 40.625 L 192.238 40.625 A 0.5 0.5 0 0 1 192.738 41.125 L 192.738 54.125 A 0.5 0.5 0 0 1 192.238 54.625 L 179.238 54.625 A 0.5 0.5 0 0 1 178.738 54.125 L 178.738 41.125 A 0.5 0.5 0 0 1 179.238 40.625 Z M 198.288 40.625 L 211.288 40.625 A 0.5 0.5 0 0 1 211.788 41.125 L 211.788 54.125 A 0.5 0.5 0 0 1 211.288 54.625 L 198.288 54.625 A 0.5 0.5 0 0 1 197.788 54.125 L 197.788 41.125 A 0.5 0.5 0 0 1 198.288 40.625 Z M 217.338 40.625 L 230.338 40.625 A 0.5 0.5 0 0 1 230.838 41.125 L 230.838 54.125 A 0.5 0.5 0 0 1 230.338 54.625 L 217.338 54.625 A 0.5 0.5 0 0 1 216.838 54.125 L 216.838 41.125 A 0.5 0.5 0 0 1 217.338 40.625 Z M 236.388 40.625 L 249.388 40.625 A 0.5 0.5 0 0 1 249.888 41.125 L 249.888 54.125 A 0.5 0.5 0 0 1 249.388 54.625 L 236.388 54.625 A 0.5 0.5 0 0 1 235.888 54.125 L 235.888 41.125 A 0.5 0.5 0 0 1 236.388 40.625 Z M 267.344 40.625 L 280.344 40.625 A 0.5 0.5 0 0 1 280.844 41.125 L 280.844 54.125 A 0.5 0.5 0 0 1 280.344 54.625 L 267.344 54.625 A 0.5 0.5 0 0 1 266.844 54.125 L 266.844 41.125 A 0.5 0.5 0 0 1 267.344 40.625 Z M 317.35 40.625 L 330.35 40.625 A 0.5 0.5 0 0 1 330.85 41.125 L 330.85 54.125 A 0.5 0.5 0 0 1 330.35 54.625 L 317.35 54.625 A 0.5 0.5 0 0 1 316.85 54.125 L 316.85 41.125 A 0.5 0.5 0 0 1 317.35 40.625 Z M 17.313 59.675 L 30.313 59.675 A 0.5 0.5 0 0 1 30.813 60.175 L 30.813 73.175 A 0.5 0.5 0 0 1 30.313 73.675 L 17.313 73.675 A 0.5 0.5 0 0 1 16.813 73.175 L 16.813 60.175 A 0.5 0.5 0 0 1 17.313 59.675 Z M 45.888 59.675 L 58.888 59.675 A 0.5 0.5 0 0 1 59.388 60.175 L 59.388 73.175 A 0.5 0.5 0 0 1 58.888 73.675 L 45.888 73.675 A 0.5 0.5 0 0 1 45.388 73.175 L 45.388 60.175 A 0.5 0.5 0 0 1 45.888 59.675 Z M 64.938 59.675 L 77.938 59.675 A 0.5 0.5 0 0 1 78.438 60.175 L 78.438 73.175 A 0.5 0.5 0 0 1 77.938 73.675 L 64.938 73.675 A 0.5 0.5 0 0 1 64.438 73.175 L 64.438 60.175 A 0.5 0.5 0 0 1 64.938 59.675 Z M 83.988 59.675 L 96.988 59.675 A 0.5 0.5 0 0 1 97.488 60.175 L 97.488 73.175 A 0.5 0.5 0 0 1 96.988 73.675 L 83.988 73.675 A 0.5 0.5 0 0 1 83.488 73.175 L 83.488 60.175 A 0.5 0.5 0 0 1 83.988 59.675 Z M 103.038 59.675 L 116.038 59.675 A 0.5 0.5 0 0 1 116.538 60.175 L 116.538 73.175 A 0.5 0.5 0 0 1 116.038 73.675 L 103.038 73.675 A 0.5 0.5 0 0 1 102.538 73.175 L 102.538 60.175 A 0.5 0.5 0 0 1 103.038 59.675 Z M 122.088 59.675 L 135.088 59.675 A 0.5 0.5 0 0 1 135.588 60.175 L 135.588 73.175 A 0.5 0.5 0 0 1 135.088 73.675 L 122.088 73.675 A 0.5 0.5 0 0 1 121.588 73.175 L 121.588 60.175 A 0.5 0.5 0 0 1 122.088 59.675 Z M 141.138 59.675 L 154.138 59.675 A 0.5 0.5 0 0 1 154.638 60.175 L 154.638 73.175 A 0.5 0.5 0 0 1 154.138 73.675 L 141.138 73.675 A 0.5 0.5 0 0 1 140.638 73.175 L 140.638 60.175 A 0.5 0.5 0 0 1 141.138 59.675 Z M 160.188 59.675 L 173.188 59.675 A 0.5 0.5 0 0 1 173.688 60.175 L 173.688 73.175 A 0.5 0.5 0 0 1 173.188 73.675 L 160.188 73.675 A 0.5 0.5 0 0 1 159.688 73.175 L 159.688 60.175 A 0.5 0.5 0 0 1 160.188 59.675 Z M 179.238 59.675 L 192.238 59.675 A 0.5 0.5 0 0 1 192.738 60.175 L 192.738 73.175 A 0.5 0.5 0 0 1 192.238 73.675 L 179.238 73.675 A 0.5 0.5 0 0 1 178.738 73.175 L 178.738 60.175 A 0.5 0.5 0 0 1 179.238 59.675 Z M 198.288 59.675 L 211.288 59.675 A 0.5 0.5 0 0 1 211.788 60.175 L 211.788 73.175 A 0.5 0.5 0 0 1 211.288 73.675 L 198.288 73.675 A 0.5 0.5 0 0 1 197.788 73.175 L 197.788 60.175 A 0.5 0.5 0 0 1 198.288 59.675 Z M 217.338 59.675 L 230.338 59.675 A 0.5 0.5 0 0 1 230.838 60.175 L 230.838 73.175 A 0.5 0.5 0 0 1 230.338 73.675 L 217.338 73.675 A 0.5 0.5 0 0 1 216.838 73.175 L 216.838 60.175 A 0.5 0.5 0 0 1 217.338 59.675 Z M 243.531 59.675 L 256.531 59.675 A 0.5 0.5 0 0 1 257.031 60.175 L 257.031 73.175 A 0.5 0.5 0 0 1 256.531 73.675 L 243.531 73.675 A 0.5 0.5 0 0 1 243.031 73.175 L 243.031 60.175 A 0.5 0.5 0 0 1 243.531 59.675 Z M 269.725 59.675 L 282.725 59.675 A 0.5 0.5 0 0 1 283.225 60.175 L 283.225 73.175 A 0.5 0.5 0 0 1 282.725 73.675 L 269.725 73.675 A 0.5 0.5 0 0 1 269.225 73.175 L 269.225 60.175 A 0.5 0.5 0 0 1 269.725 59.675 Z M 317.35 59.675 L 330.35 59.675 A 0.5 0.5 0 0 1 330.85 60.175 L 330.85 73.175 A 0.5 0.5 0 0 1 330.35 73.675 L 317.35 73.675 A 0.5 0.5 0 0 1 316.85 73.175 L 316.85 60.175 A 0.5 0.5 0 0 1 317.35 59.675 Z M 293.538 64.438 L 306.538 64.438 A 0.5 0.5 0 0 1 307.038 64.938 L 307.038 77.938 A 0.5 0.5 0 0 1 306.538 78.438 L 293.538 78.438 A 0.5 0.5 0 0 1 293.038 77.938 L 293.038 64.938 A 0.5 0.5 0 0 1 293.538 64.438 Z M 7.788 78.725 L 20.788 78.725 A 0.5 0.5 0 0 1 21.288 79.225 L 21.288 92.225 A 0.5 0.5 0 0 1 20.788 92.725 L 7.788 92.725 A 0.5 0.5 0 0 1 7.288 92.225 L 7.288 79.225 A 0.5 0.5 0 0 1 7.788 78.725 Z M 31.6 78.725 L 44.6 78.725 A 0.5 0.5 0 0 1 45.1 79.225 L 45.1 92.225 A 0.5 0.5 0 0 1 44.6 92.725 L 31.6 92.725 A 0.5 0.5 0 0 1 31.1 92.225 L 31.1 79.225 A 0.5 0.5 0 0 1 31.6 78.725 Z M 129.231 78.725 L 142.231 78.725 A 0.5 0.5 0 0 1 142.731 79.225 L 142.731 92.225 A 0.5 0.5 0 0 1 142.231 92.725 L 129.231 92.725 A 0.5 0.5 0 0 1 128.731 92.225 L 128.731 79.225 A 0.5 0.5 0 0 1 129.231 78.725 Z M 200.669 78.725 L 213.669 78.725 A 0.5 0.5 0 0 1 214.169 79.225 L 214.169 92.225 A 0.5 0.5 0 0 1 213.669 92.725 L 200.669 92.725 A 0.5 0.5 0 0 1 200.169 92.225 L 200.169 79.225 A 0.5 0.5 0 0 1 200.669 78.725 Z M 224.481 78.725 L 237.481 78.725 A 0.5 0.5 0 0 1 237.981 79.225 L 237.981 92.225 A 0.5 0.5 0 0 1 237.481 92.725 L 224.481 92.725 A 0.5 0.5 0 0 1 223.981 92.225 L 223.981 79.225 A 0.5 0.5 0 0 1 224.481 78.725 Z M 248.294 78.725 L 261.294 78.725 A 0.5 0.5 0 0 1 261.794 79.225 L 261.794 92.225 A 0.5 0.5 0 0 1 261.294 92.725 L 248.294 92.725 A 0.5 0.5 0 0 1 247.794 92.225 L 247.794 79.225 A 0.5 0.5 0 0 1 248.294 78.725 Z M 274.488 83.488 L 287.488 83.488 A 0.5 0.5 0 0 1 287.988 83.988 L 287.988 96.988 A 0.5 0.5 0 0 1 287.488 97.488 L 274.488 97.488 A 0.5 0.5 0 0 1 273.988 96.988 L 273.988 83.988 A 0.5 0.5 0 0 1 274.488 83.488 Z M 293.538 83.488 L 306.538 83.488 A 0.5 0.5 0 0 1 307.038 83.988 L 307.038 96.988 A 0.5 0.5 0 0 1 306.538 97.488 L 293.538 97.488 A 0.5 0.5 0 0 1 293.038 96.988 L 293.038 83.988 A 0.5 0.5 0 0 1 293.538 83.488 Z M 312.588 83.488 L 325.588 83.488 A 0.5 0.5 0 0 1 326.088 83.988 L 326.088 96.988 A 0.5 0.5 0 0 1 325.588 97.488 L 312.588 97.488 A 0.5 0.5 0 0 1 312.088 96.988 L 312.088 83.988 A 0.5 0.5 0 0 1 312.588 83.488 Z M 26.838 2.525 L 39.838 2.525 A 0.5 0.5 0 0 1 40.338 3.025 L 40.338 16.025 A 0.5 0.5 0 0 1 39.838 16.525 L 26.838 16.525 A 0.5 0.5 0 0 1 26.338 16.025 L 26.338 3.025 A 0.5 0.5 0 0 1 26.838 2.525 Z M 45.888 2.525 L 58.888 2.525 A 0.5 0.5 0 0 1 59.388 3.025 L 59.388 16.025 A 0.5 0.5 0 0 1 58.888 16.525 L 45.888 16.525 A 0.5 0.5 0 0 1 45.388 16.025 L 45.388 3.025 A 0.5 0.5 0 0 1 45.888 2.525 Z M 64.938 2.525 L 77.938 2.525 A 0.5 0.5 0 0 1 78.438 3.025 L 78.438 16.025 A 0.5 0.5 0 0 1 77.938 16.525 L 64.938 16.525 A 0.5 0.5 0 0 1 64.438 16.025 L 64.438 3.025 A 0.5 0.5 0 0 1 64.938 2.525 Z M 83.988 2.525 L 96.988 2.525 A 0.5 0.5 0 0 1 97.488 3.025 L 97.488 16.025 A 0.5 0.5 0 0 1 96.988 16.525 L 83.988 16.525 A 0.5 0.5 0 0 1 83.488 16.025 L 83.488 3.025 A 0.5 0.5 0 0 1 83.988 2.525 Z M 103.038 2.525 L 116.038 2.525 A 0.5 0.5 0 0 1 116.538 3.025 L 116.538 16.025 A 0.5 0.5 0 0 1 116.038 16.525 L 103.038 16.525 A 0.5 0.5 0 0 1 102.538 16.025 L 102.538 3.025 A 0.5 0.5 0 0 1 103.038 2.525 Z M 122.088 2.525 L 135.088 2.525 A 0.5 0.5 0 0 1 135.588 3.025 L 135.588 16.025 A 0.5 0.5 0 0 1 135.088 16.525 L 122.088 16.525 A 0.5 0.5 0 0 1 121.588 16.025 L 121.588 3.025 A 0.5 0.5 0 0 1 122.088 2.525 Z M 141.138 2.525 L 154.138 2.525 A 0.5 0.5 0 0 1 154.638 3.025 L 154.638 16.025 A 0.5 0.5 0 0 1 154.138 16.525 L 141.138 16.525 A 0.5 0.5 0 0 1 140.638 16.025 L 140.638 3.025 A 0.5 0.5 0 0 1 141.138 2.525 Z M 160.188 2.525 L 173.188 2.525 A 0.5 0.5 0 0 1 173.688 3.025 L 173.688 16.025 A 0.5 0.5 0 0 1 173.188 16.525 L 160.188 16.525 A 0.5 0.5 0 0 1 159.688 16.025 L 159.688 3.025 A 0.5 0.5 0 0 1 160.188 2.525 Z M 179.238 2.525 L 192.238 2.525 A 0.5 0.5 0 0 1 192.738 3.025 L 192.738 16.025 A 0.5 0.5 0 0 1 192.238 16.525 L 179.238 16.525 A 0.5 0.5 0 0 1 178.738 16.025 L 178.738 3.025 A 0.5 0.5 0 0 1 179.238 2.525 Z M 198.288 2.525 L 211.288 2.525 A 0.5 0.5 0 0 1 211.788 3.025 L 211.788 16.025 A 0.5 0.5 0 0 1 211.288 16.525 L 198.288 16.525 A 0.5 0.5 0 0 1 197.788 16.025 L 197.788 3.025 A 0.5 0.5 0 0 1 198.288 2.525 Z M 217.338 2.525 L 230.338 2.525 A 0.5 0.5 0 0 1 230.838 3.025 L 230.838 16.025 A 0.5 0.5 0 0 1 230.338 16.525 L 217.338 16.525 A 0.5 0.5 0 0 1 216.838 16.025 L 216.838 3.025 A 0.5 0.5 0 0 1 217.338 2.525 Z M 236.388 2.525 L 249.388 2.525 A 0.5 0.5 0 0 1 249.888 3.025 L 249.888 16.025 A 0.5 0.5 0 0 1 249.388 16.525 L 236.388 16.525 A 0.5 0.5 0 0 1 235.888 16.025 L 235.888 3.025 A 0.5 0.5 0 0 1 236.388 2.525 Z M 255.438 2.525 L 268.438 2.525 A 0.5 0.5 0 0 1 268.938 3.025 L 268.938 16.025 A 0.5 0.5 0 0 1 268.438 16.525 L 255.438 16.525 A 0.5 0.5 0 0 1 254.938 16.025 L 254.938 3.025 A 0.5 0.5 0 0 1 255.438 2.525 Z M 284.013 2.525 L 297.013 2.525 A 0.5 0.5 0 0 1 297.513 3.025 L 297.513 16.025 A 0.5 0.5 0 0 1 297.013 16.525 L 284.013 16.525 A 0.5 0.5 0 0 1 283.513 16.025 L 283.513 3.025 A 0.5 0.5 0 0 1 284.013 2.525 Z M 317.35 2.525 L 330.35 2.525 A 0.5 0.5 0 0 1 330.85 3.025 L 330.85 16.025 A 0.5 0.5 0 0 1 330.35 16.525 L 317.35 16.525 A 0.5 0.5 0 0 1 316.85 16.025 L 316.85 3.025 A 0.5 0.5 0 0 1 317.35 2.525 Z M 55.413 78.725 L 68.413 78.725 A 0.5 0.5 0 0 1 68.913 79.225 L 68.913 92.225 A 0.5 0.5 0 0 1 68.413 92.725 L 55.413 92.725 A 0.5 0.5 0 0 1 54.913 92.225 L 54.913 79.225 A 0.5 0.5 0 0 1 55.413 78.725 Z M 258.906 41.625 L 264.906 41.625 A 0.5 0.5 0 0 1 265.406 42.125 L 265.406 56.125 A 0.5 0.5 0 0 1 264.906 56.625 L 258.906 56.625 A 0.5 0.5 0 0 1 258.406 56.125 L 258.406 42.125 A 0.5 0.5 0 0 1 258.906 41.625 Z M 282.782 41.625 L 288.782 41.625 A 0.5 0.5 0 0 1 289.282 42.125 L 289.282 56.125 A 0.5 0.5 0 0 1 288.782 56.625 L 282.782 56.625 A 0.5 0.5 0 0 1 282.282 56.125 L 282.282 42.125 A 0.5 0.5 0 0 1 282.782 41.625 Z M 8.875 60.675 L 14.875 60.675 A 0.5 0.5 0 0 1 15.375 61.175 L 15.375 75.175 A 0.5 0.5 0 0 1 14.875 75.675 L 8.875 75.675 A 0.5 0.5 0 0 1 8.375 75.175 L 8.375 61.175 A 0.5 0.5 0 0 1 8.875 60.675 Z M 32.751 60.675 L 38.751 60.675 A 0.5 0.5 0 0 1 39.251 61.175 L 39.251 75.175 A 0.5 0.5 0 0 1 38.751 75.675 L 32.751 75.675 A 0.5 0.5 0 0 1 32.251 75.175 L 32.251 61.175 A 0.5 0.5 0 0 1 32.751 60.675 Z M 82.731 79.725 L 88.731 79.725 A 0.5 0.5 0 0 1 89.231 80.225 L 89.231 94.225 A 0.5 0.5 0 0 1 88.731 94.725 L 82.731 94.725 A 0.5 0.5 0 0 1 82.231 94.225 L 82.231 80.225 A 0.5 0.5 0 0 1 82.731 79.725 Z M 182.731 79.725 L 188.731 79.725 A 0.5 0.5 0 0 1 189.231 80.225 L 189.231 94.225 A 0.5 0.5 0 0 1 188.731 94.725 L 182.731 94.725 A 0.5 0.5 0 0 1 182.231 94.225 L 182.231 80.225 A 0.5 0.5 0 0 1 182.731 79.725 Z M 275.575 3.525 L 281.575 3.525 A 0.5 0.5 0 0 1 282.075 4.025 L 282.075 18.025 A 0.5 0.5 0 0 1 281.575 18.525 L 275.575 18.525 A 0.5 0.5 0 0 1 275.075 18.025 L 275.075 4.025 A 0.5 0.5 0 0 1 275.575 3.525 Z M 299.451 3.525 L 305.451 3.525 A 0.5 0.5 0 0 1 305.951 4.025 L 305.951 18.025 A 0.5 0.5 0 0 1 305.451 18.525 L 299.451 18.525 A 0.5 0.5 0 0 1 298.951 18.025 L 298.951 4.025 A 0.5 0.5 0 0 1 299.451 3.525 Z" vector-effect="non-scaling-stroke"/></g></svg>